<svg xmlns="http://www.w3.org/2000/svg" viewBox="0 0 48 48">
  <rect x="8" y="4" width="32" height="40" rx="5" fill="#fdfdfb" stroke="#c8860a" stroke-width="1.5"/>
  <g transform="translate(13.2,14) scale(0.043)" fill="#16161a">
    <path d="M256 0c-13 0-25 5-34 14C158 78 0 228 0 320c0 53 43 96 96 96 30 0 57-14 75-36-3 25-13 49-29 67-5 6-7 14-3 21s11 12 19 12h202c8 0 15-5 19-12s2-15-3-21c-16-18-26-42-29-67 18 22 45 36 75 36 53 0 96-43 96-96 0-92-158-242-222-306-9-9-21-14-34-14z"/>
  </g>
</svg>
